<svg width="244" height="125" viewBox="0 0 244 125" fill="none" xmlns="http://www.w3.org/2000/svg">
<path d="M121.847 91.0336C121.847 92.5429 120.861 93.8181 119.763 93.8181C118.665 93.8181 118.13 93.1797 118.13 92.2228C118.13 91.0336 119.228 89.9305 119.228 88.0168C119.228 86.4215 118.27 85.6385 116.862 85.6385C113.848 85.6385 109.791 91.6997 109.791 101.91C109.791 112.527 113.988 121.489 122.861 121.489C125.594 121.489 127.622 120.126 129.762 118.183C128.607 117.168 127.592 116.443 126.634 116.443C124.55 116.443 124.606 119.373 122.775 119.373C121.929 119.373 121.366 118.88 121.366 117.836C121.366 116.588 123.001 115.37 125.001 115.37C127.113 115.37 128.748 116.356 130.325 117.662C134.128 114.094 137.847 109.338 144.098 109.338C149.394 109.338 152.155 113.022 152.155 116.82C152.155 120.853 149.029 125 142.465 125C136.775 125 133.03 121.142 130.297 118.648C127.678 121.259 125.029 123.26 121.31 123.26C112.55 123.26 105 115.313 105 104.087C105.002 93.7304 111.057 85 116.776 85C119.733 85 121.847 87.7845 121.847 91.0336ZM150.354 116.848C150.354 113.425 148.071 110.09 143.677 110.09C138.325 110.09 134.579 114.325 130.833 118.096C133.819 120.706 136.748 124.215 142.551 124.215C147.789 124.215 150.354 120.474 150.354 116.848ZM120.961 110.136C120.961 110.89 121.228 111.152 121.729 111.152H122.675C122.763 111.239 122.822 111.441 122.822 111.528C122.822 111.614 122.763 111.702 122.675 111.761H116.26C116.141 111.702 116.113 111.645 116.113 111.558C116.113 111.47 116.142 111.239 116.26 111.152H117.028C117.59 111.152 117.679 110.716 117.679 110.251V99.7227C117.679 99.2581 117.442 98.9104 117.205 98.9104C116.821 98.9104 116.762 99.2288 116.614 99.2288C116.437 99.2288 116.348 99.1135 116.348 98.9672C116.348 98.8812 116.377 98.6488 116.437 98.5318C118.921 98.0104 120.073 96.8487 120.487 96.8487C120.724 96.8487 120.961 97.0225 120.961 97.4872V110.136V110.136ZM133.319 100.767C133.319 102.072 132.728 103.204 131.782 103.204C131.161 103.204 130.688 102.769 130.688 102.074C130.688 101.261 131.368 100.681 131.368 99.4336C131.368 98.3029 130.658 97.2876 129.653 97.2876C128.293 97.2876 126.844 99.4921 126.844 104.51C126.844 109.529 127.997 111.413 129.239 111.413C131.574 111.413 132.993 108.049 132.993 106.541C132.993 106.25 133.14 106.106 133.317 106.106C133.494 106.106 133.701 106.28 133.701 106.541C133.701 108.658 131.809 112.11 128.97 112.11C126.399 112.11 123.412 109.673 123.412 105.12C123.412 99.7244 126.28 96.7954 129.413 96.7954C132.195 96.7937 133.319 98.9689 133.319 100.767ZM138.078 87.8895C138.196 87.5986 138.462 87.251 138.669 87.251C138.906 87.251 139.143 87.4248 139.143 87.8895V110.165C139.143 110.919 139.409 111.181 139.911 111.181H140.857C140.946 111.269 141.004 111.442 141.004 111.528C141.004 111.614 140.944 111.702 140.857 111.761H134.736C134.619 111.702 134.589 111.645 134.589 111.558C134.589 111.47 134.619 111.269 134.736 111.181H135.505C136.066 111.181 136.156 110.745 136.156 110.282V92.8492C136.156 92.3846 135.919 92.037 135.682 92.037C135.298 92.037 135.238 92.3553 135.091 92.3553C134.914 92.3553 134.824 92.24 134.824 92.0937C134.824 92.006 134.854 91.9199 134.914 91.8029C135.742 91.1076 137.25 90.0062 138.078 87.8895ZM146.326 110.136C146.326 110.89 146.593 111.152 147.094 111.152H148.04C148.128 111.239 148.187 111.441 148.187 111.528C148.187 111.614 148.128 111.702 148.04 111.761H141.625C141.507 111.702 141.478 111.645 141.478 111.558C141.478 111.47 141.507 111.239 141.625 111.152H142.393C142.955 111.152 143.044 110.716 143.044 110.251V99.7227C143.044 99.2581 142.807 98.9104 142.57 98.9104C142.186 98.9104 142.127 99.2288 141.979 99.2288C141.802 99.2288 141.713 99.1135 141.713 98.9672C141.713 98.8812 141.742 98.6488 141.8 98.5318C144.284 98.0104 145.437 96.8487 145.851 96.8487C146.088 96.8487 146.324 97.0225 146.324 97.4872V110.136H146.326ZM144.316 90.5277C145.261 90.5277 146.059 91.5723 146.059 92.906C146.059 94.2398 145.261 95.2844 144.316 95.2844C143.37 95.2844 142.602 94.2398 142.602 92.906C142.6 91.5723 143.37 90.5277 144.316 90.5277ZM156.614 96.8797C156.614 97.2273 156.762 101.201 156.762 101.404C156.762 101.636 156.644 101.781 156.437 101.781C156.2 101.781 156.142 101.636 156.142 101.404C156.142 99.0257 155.197 97.5457 153.688 97.5457C152.506 97.5457 151.766 98.4733 151.766 99.3734C151.766 102.476 157.886 103.724 157.886 107.698C157.886 110.685 155.462 112.193 153.097 112.193C150.733 112.193 148.426 110.742 148.426 107.842C148.426 106.682 149.017 106.132 149.668 106.132C150.259 106.132 150.91 106.682 150.91 107.668C150.91 108.596 150.112 109.351 150.112 110.076C150.112 110.83 151.176 111.439 152.269 111.439C153.451 111.439 154.664 110.744 154.664 108.828C154.664 105.87 149.224 105.202 149.224 101.113C149.224 98.9087 150.554 96.9658 153.364 96.9658C154.192 96.9658 154.753 97.3134 155.256 97.3134C156.144 97.3134 155.877 96.5596 156.321 96.5596C156.555 96.5613 156.614 96.7059 156.614 96.8797ZM183.932 96.7644C187.243 96.7644 189.933 100.217 189.933 104.45C189.933 105.698 189.696 106.887 189.282 107.932C190.878 109.092 191.646 110.919 191.646 112.805C191.646 116.461 188.838 120.405 183.753 120.405C176.627 120.405 173.405 115.475 173.405 110.63V100.506C173.405 99.0842 172.607 98.389 171.602 98.389C170.686 98.389 169.886 99.2598 169.886 100.594V110.427C169.886 110.775 170.3 111.181 170.774 111.181H171.572C171.689 111.269 171.749 111.442 171.749 111.528C171.749 111.614 171.689 111.702 171.572 111.761H165.748C165.629 111.702 165.571 111.645 165.571 111.558C165.571 111.47 165.631 111.269 165.748 111.181H166.28C166.811 111.181 166.99 110.716 166.99 110.486V100.883C166.99 99.055 166.162 98.272 165.157 98.272C164.506 98.272 163.234 98.9672 163.234 100.941V110.165C163.234 110.919 163.501 111.181 164.003 111.181H164.948C165.036 111.269 165.096 111.442 165.096 111.528C165.096 111.614 165.036 111.702 164.948 111.761H158.533C158.416 111.702 158.386 111.645 158.386 111.558C158.386 111.47 158.416 111.269 158.533 111.181H159.302C159.863 111.181 159.952 110.745 159.952 110.282V99.5782C159.952 99.1135 159.716 98.7659 159.479 98.7659C159.095 98.7659 159.035 99.0842 158.888 99.0842C158.71 99.0842 158.621 98.9689 158.621 98.8227C158.621 98.7366 158.651 98.6488 158.71 98.5335C161.194 98.0121 162.347 96.8505 162.761 96.8505C162.998 96.8505 163.234 97.0243 163.234 97.4889V98.6781C163.678 98.0104 164.86 97.112 166.604 97.112C167.906 97.112 169.235 97.8366 169.532 98.7659C169.769 98.2737 170.891 97.112 172.637 97.112C174.587 97.112 176.569 98.389 176.569 101.666V110.511C176.569 115.965 178.846 119.736 183.902 119.736C188.366 119.736 191.027 115.994 191.027 112.774C191.027 110.802 190.199 109.322 189.077 108.424C188.012 110.658 186.121 112.136 183.932 112.136C180.62 112.136 177.931 108.684 177.931 104.45C177.931 100.217 180.622 96.7644 183.932 96.7644ZM183.872 111.614C184.817 111.614 185.705 110.716 186.03 107.496C185.084 107.815 184.581 109.179 183.428 109.179C182.955 109.179 182.57 108.773 182.57 108.279C182.57 107.496 183.309 106.713 184.965 106.713C185.349 106.713 185.733 106.742 186.087 106.77C186.147 106.075 186.177 105.319 186.177 104.421C186.177 98.9397 185.082 97.2273 183.87 97.2273C182.628 97.2273 181.534 99.1995 181.534 104.421C181.537 110.019 182.632 111.614 183.872 111.614ZM195.462 110.165C195.462 110.919 195.728 111.181 196.23 111.181H197.175C197.265 111.269 197.323 111.442 197.323 111.528C197.323 111.614 197.263 111.702 197.175 111.761H190.761C190.643 111.702 190.613 111.645 190.613 111.558C190.613 111.47 190.643 111.269 190.761 111.181H191.529C192.09 111.181 192.18 110.745 192.18 110.282V100.014C192.18 99.5489 191.943 99.2013 191.706 99.2013C191.322 99.2013 191.262 99.5196 191.115 99.5196C190.938 99.5196 190.848 99.4043 190.848 99.2581C190.848 99.1703 190.878 98.9397 190.936 98.8227C193.42 98.3012 194.572 97.1413 194.986 97.1413C195.223 97.1413 195.46 97.3151 195.46 97.7798V99.8397C196.288 97.3736 200.308 91.5723 207.818 91.5723C209.414 91.5723 210.568 92.1523 210.568 93.1969C210.568 93.8353 210.065 94.269 209.267 94.269C208.351 94.269 207.641 92.9353 206.222 92.9353C200.101 92.9353 195.46 98.9397 195.46 103.058V110.165H195.462ZM208.825 103.552C208.825 103.899 208.677 104.015 208.441 104.015C207.997 104.015 207.346 103.87 206.134 103.87C204.745 103.87 202.882 104.653 201.67 105.727C201.847 109.845 202.912 111.411 204.064 111.411C206.399 111.411 207.82 108.047 207.82 106.539C207.82 106.249 207.967 106.104 208.144 106.104C208.321 106.104 208.528 106.278 208.528 106.539C208.528 108.656 206.636 112.108 203.797 112.108C201.226 112.108 198.238 109.672 198.238 105.118C198.238 99.7227 200.957 96.7937 203.797 96.7937C206.637 96.7937 208.825 100.014 208.825 103.552ZM205.159 102.769C205.159 100.42 204.655 97.2859 203.769 97.2859C202.794 97.2859 201.671 99.4904 201.671 104.509V104.8C202.41 104.19 203.415 103.669 204.273 103.349C204.745 103.175 205.159 103.03 205.159 102.769ZM218.048 107.119C216.333 108.135 215.003 109.527 214.292 111.122C214.41 111.152 214.529 111.181 214.677 111.181H215.622C215.712 111.269 215.769 111.442 215.769 111.528C215.769 111.614 215.712 111.702 215.622 111.761H214.056C213.849 112.341 213.761 112.979 213.761 113.618C213.761 116.344 216.155 116.373 217.073 116.867C217.783 117.244 218.048 117.765 218.048 118.259C218.048 119.042 217.31 119.767 216.452 119.767C214.087 119.767 212.845 116.779 212.845 113.965C212.845 113.212 212.963 112.458 213.2 111.761H209.209C209.091 111.702 209.062 111.645 209.062 111.558C209.062 111.47 209.091 111.269 209.209 111.181H209.977C210.539 111.181 210.628 110.745 210.628 110.282V99.5782C210.628 99.1135 210.391 98.7659 210.154 98.7659C209.77 98.7659 209.711 99.0842 209.563 99.0842C209.386 99.0842 209.297 98.9689 209.297 98.8227C209.297 98.7366 209.326 98.6488 209.386 98.5335C211.87 98.0121 213.022 96.8505 213.436 96.8505C213.673 96.8505 213.91 97.0243 213.91 97.4889V98.6781C214.235 98.2134 214.915 97.6042 215.92 97.3151C216.601 94.4721 219.113 91.7461 223.961 91.7461C229.431 91.7461 232.388 95.0245 232.388 101.027L232.271 106.799C235.256 108.598 237 111.353 237 114.05C237 118.371 233.955 122.665 227.954 122.665C222.395 122.665 218.05 119.359 218.05 111.759V107.119H218.048ZM218.048 106.422V103.376C216.452 102.361 215.741 100.65 215.741 98.8519C215.741 98.6781 215.741 98.475 215.771 98.272C214.796 98.4458 213.908 99.3734 213.908 100.941V110.165V110.224C214.826 108.685 216.275 107.352 218.048 106.422ZM216.599 98.3305C216.569 98.5043 216.569 98.6506 216.569 98.8227C216.569 100.303 217.013 101.722 218.048 102.593V100.853C218.048 99.3751 217.397 98.5628 216.599 98.3305ZM224.64 104.8C224.995 104.8 225.321 104.829 225.675 104.829C226.975 104.132 228.366 103.466 229.252 102.45L229.282 100.797V100.449C229.282 95.663 226.828 93.0231 222.718 93.0231C219.495 93.0231 217.515 94.9953 216.834 97.1413C216.952 97.112 217.101 97.112 217.248 97.112C219.199 97.112 221.151 98.389 221.151 101.666V103.435C224.167 103.116 221.742 99.7795 224.226 99.7795C224.965 99.7795 225.616 100.447 225.616 101.316C225.616 102.564 224.226 104.304 221.653 104.304H221.149V105.231C222.246 104.973 223.428 104.8 224.64 104.8ZM229.047 110.976C228.456 111.585 227.538 112.05 226.326 112.05C223.784 112.05 222.216 110.948 222.216 108.947C222.216 107.236 223.339 106.221 224.73 105.35H224.553C223.37 105.35 222.218 105.524 221.153 105.815V110.775C221.153 119.013 224.465 122.174 228.101 122.174C232.448 122.174 235.227 118.577 235.227 114.168C235.227 111.849 234.192 109.585 232.241 107.932L232.211 110.425C232.211 110.773 232.418 111.179 232.892 111.179H233.63C233.807 111.179 233.897 111.324 233.897 111.47C233.897 111.614 233.807 111.761 233.69 111.761H229.373C229.166 111.761 229.048 111.645 229.048 111.442V110.976H229.047ZM227.243 105.61C226.298 106.539 225.5 107.496 225.5 109.062C225.5 110.396 226.268 111.179 227.156 111.179C228.101 111.179 228.722 110.541 229.076 109.845L229.166 106.133C228.573 105.93 227.922 105.727 227.243 105.61ZM229.164 105.436L229.224 103.523C228.78 104.132 228.278 104.624 227.775 105.118C228.277 105.206 228.72 105.321 229.164 105.436Z" fill="#F6EFE1"/>
<path d="M11.424 54.384C8.416 54.384 6 53.44 4.176 51.552C2.384 49.664 1.488 47.072 1.488 43.776V24.768C1.488 20.672 2.304 17.584 3.936 15.504C5.568 13.424 8.128 12.384 11.616 12.384C14.656 12.384 17.104 13.216 18.96 14.88C20.816 16.544 21.744 18.944 21.744 22.08V29.184H13.536V23.088C13.536 21.904 13.392 21.088 13.104 20.64C12.816 20.192 12.32 19.968 11.616 19.968C10.88 19.968 10.368 20.224 10.08 20.736C9.824 21.248 9.696 22 9.696 22.992V43.68C9.696 44.768 9.856 45.568 10.176 46.08C10.496 46.56 10.976 46.8 11.616 46.8C12.896 46.8 13.536 45.76 13.536 43.68V36.24H21.84V44.016C21.84 50.928 18.368 54.384 11.424 54.384ZM34.3984 54.384C31.0704 54.384 28.5424 53.376 26.8144 51.36C25.0864 49.312 24.2224 46.448 24.2224 42.768V23.136C24.2224 19.584 25.0864 16.912 26.8144 15.12C28.5424 13.296 31.0704 12.384 34.3984 12.384C37.7264 12.384 40.2544 13.296 41.9824 15.12C43.7104 16.912 44.5744 19.584 44.5744 23.136V42.768C44.5744 46.48 43.7104 49.344 41.9824 51.36C40.2544 53.376 37.7264 54.384 34.3984 54.384ZM34.3984 46.8C35.1344 46.8 35.6304 46.48 35.8864 45.84C36.1424 45.2 36.2704 44.304 36.2704 43.152V22.992C36.2704 22.096 36.1424 21.376 35.8864 20.832C35.6624 20.256 35.1824 19.968 34.4464 19.968C33.0704 19.968 32.3824 21.008 32.3824 23.088V43.2C32.3824 44.384 32.5264 45.28 32.8144 45.888C33.1024 46.496 33.6304 46.8 34.3984 46.8ZM47.9021 54V12.768H60.4781L63.9341 37.92L67.3901 12.768H80.0621V54H72.5261V24.288L67.7741 54H60.3821L55.3421 24.288V54H47.9021ZM83.3306 54V12.768H91.2986V54H83.3306ZM94.5896 54V12.768H103.086L106.878 32.496V12.768H114.846V54H106.782L102.654 33.36V54H94.5896ZM126.992 54.384C124.016 54.384 121.792 53.344 120.32 51.264C118.88 49.152 118.16 45.968 118.16 41.712V23.952C118.16 20.144 119.008 17.264 120.704 15.312C122.4 13.36 124.928 12.384 128.288 12.384C131.008 12.384 133.12 12.928 134.624 14.016C136.128 15.104 137.168 16.688 137.744 18.768C138.32 20.848 138.608 23.52 138.608 26.784H130.544V23.088C130.544 22.096 130.4 21.328 130.112 20.784C129.856 20.24 129.376 19.968 128.672 19.968C127.104 19.968 126.32 20.992 126.32 23.04V43.008C126.32 44.256 126.48 45.2 126.8 45.84C127.12 46.48 127.68 46.8 128.48 46.8C129.28 46.8 129.84 46.48 130.16 45.84C130.48 45.2 130.64 44.256 130.64 43.008V37.104H128.432V30H138.512V54H135.2L133.808 50.544C132.336 53.104 130.064 54.384 126.992 54.384ZM162.835 54.384C159.091 54.384 156.387 53.456 154.723 51.6C153.059 49.744 152.227 46.752 152.227 42.624V38.592H160.339V43.728C160.339 45.776 160.995 46.8 162.307 46.8C163.043 46.8 163.555 46.592 163.843 46.176C164.131 45.728 164.275 44.992 164.275 43.968C164.275 42.624 164.115 41.52 163.795 40.656C163.475 39.76 163.059 39.024 162.547 38.448C162.067 37.84 161.187 36.912 159.907 35.664L156.355 32.112C153.603 29.424 152.227 26.448 152.227 23.184C152.227 19.664 153.027 16.992 154.627 15.168C156.259 13.312 158.627 12.384 161.731 12.384C165.443 12.384 168.115 13.376 169.747 15.36C171.379 17.312 172.195 20.384 172.195 24.576H163.795L163.747 21.744C163.747 21.2 163.587 20.768 163.267 20.448C162.979 20.128 162.563 19.968 162.019 19.968C161.379 19.968 160.899 20.144 160.579 20.496C160.259 20.848 160.099 21.328 160.099 21.936C160.099 23.28 160.867 24.672 162.403 26.112L167.203 30.72C168.323 31.808 169.251 32.848 169.987 33.84C170.723 34.8 171.315 35.952 171.763 37.296C172.211 38.608 172.435 40.176 172.435 42C172.435 46.064 171.683 49.152 170.179 51.264C168.707 53.344 166.259 54.384 162.835 54.384ZM185.008 54.384C181.68 54.384 179.152 53.376 177.424 51.36C175.696 49.312 174.832 46.448 174.832 42.768V23.136C174.832 19.584 175.696 16.912 177.424 15.12C179.152 13.296 181.68 12.384 185.008 12.384C188.336 12.384 190.864 13.296 192.592 15.12C194.32 16.912 195.184 19.584 195.184 23.136V42.768C195.184 46.48 194.32 49.344 192.592 51.36C190.864 53.376 188.336 54.384 185.008 54.384ZM185.008 46.8C185.744 46.8 186.24 46.48 186.496 45.84C186.752 45.2 186.88 44.304 186.88 43.152V22.992C186.88 22.096 186.752 21.376 186.496 20.832C186.272 20.256 185.792 19.968 185.056 19.968C183.68 19.968 182.992 21.008 182.992 23.088V43.2C182.992 44.384 183.136 45.28 183.424 45.888C183.712 46.496 184.24 46.8 185.008 46.8ZM208.352 54.384C205.024 54.384 202.496 53.376 200.768 51.36C199.04 49.312 198.176 46.448 198.176 42.768V23.136C198.176 19.584 199.04 16.912 200.768 15.12C202.496 13.296 205.024 12.384 208.352 12.384C211.68 12.384 214.208 13.296 215.936 15.12C217.664 16.912 218.528 19.584 218.528 23.136V42.768C218.528 46.48 217.664 49.344 215.936 51.36C214.208 53.376 211.68 54.384 208.352 54.384ZM208.352 46.8C209.088 46.8 209.584 46.48 209.84 45.84C210.096 45.2 210.224 44.304 210.224 43.152V22.992C210.224 22.096 210.096 21.376 209.84 20.832C209.616 20.256 209.136 19.968 208.4 19.968C207.024 19.968 206.336 21.008 206.336 23.088V43.2C206.336 44.384 206.48 45.28 206.768 45.888C207.056 46.496 207.584 46.8 208.352 46.8ZM221.855 54V12.768H230.351L234.143 32.496V12.768H242.111V54H234.047L229.919 33.36V54H221.855Z" fill="#F6EFE1"/>
<g clip-path="url(#clip0)">
<path d="M58.5102 115.605L58.2185 118.199H16.2574L18.0011 102.638L19.7481 87.0739H61.7092L61.4936 89.0007L59.9623 102.638L59.0904 110.427H62.9076L65.2855 89.2395L65.5455 86.9267H63.7478L63.9634 85H61.7092H19.7481H17.9567L17.7507 86.8351L14.26 117.964L14 120.273H15.7945L15.5789 122.2H17.8363H59.7974H61.5887L61.7948 120.365L62.3274 115.605H58.5102Z" fill="#F6EFE1"/>
<path d="M30.2456 108.762L31.3457 99.2559L31.555 90.2175H23.4101L18.2168 115.026H22.8901L23.6352 111.013H26.5457L26.4157 115.026H30.978L31.0128 113.466C30.29 112.216 30.03 110.64 30.2456 108.762ZM26.6408 107.054H24.4563L26.812 94.4341H27.0371L26.6408 107.054Z" fill="#F6EFE1"/>
<path d="M42.0806 108.762L42.591 104.339H38.704L38.3521 107.388L38.1873 108.814C38.1714 108.955 38.1492 109.089 38.127 109.217C38.1207 109.246 38.1143 109.272 38.1112 109.302C38.089 109.4 38.0668 109.495 38.0414 109.583C38.0002 109.72 37.9558 109.848 37.9019 109.959C37.8322 110.106 37.7529 110.231 37.661 110.332C37.4485 110.571 37.1791 110.692 36.8557 110.692C36.5386 110.692 36.3008 110.584 36.1423 110.365C36.1138 110.329 36.0884 110.286 36.0662 110.244C35.9901 110.093 35.9426 109.9 35.9235 109.662C35.9045 109.423 35.914 109.141 35.9521 108.814L37.3915 96.3674C37.4359 95.9945 37.5024 95.6772 37.5944 95.4188C37.6134 95.3664 37.6324 95.3173 37.6515 95.2683C37.6927 95.1734 37.7371 95.0884 37.7846 95.0099C37.8575 94.8954 37.9463 94.8005 38.0541 94.7285C38.089 94.7056 38.127 94.6827 38.1651 94.6631C38.3204 94.5846 38.5075 94.5486 38.7199 94.5486C39.1289 94.5486 39.4047 94.6827 39.5411 94.9542C39.6267 95.1243 39.6679 95.3795 39.6679 95.7197C39.6679 95.9258 39.652 96.1613 39.6203 96.4263L39.1955 100.093H43.0825L43.4027 97.3259C43.5771 95.8178 43.9036 94.5061 44.376 93.3972C44.1921 92.6415 43.8529 92.0069 43.3551 91.4868C42.8732 90.9863 42.2867 90.6101 41.6019 90.3615C41.345 90.2666 41.0756 90.1914 40.7902 90.1325C40.3146 90.0344 39.801 89.9853 39.2462 89.9853C38.3553 89.9853 37.5563 90.1063 36.8462 90.3451C36.6432 90.4138 36.4467 90.4923 36.2596 90.5807C35.6002 90.8881 35.0326 91.3167 34.5507 91.863C33.9832 92.5107 33.5267 93.3186 33.1779 94.2902C32.8514 95.1996 32.6168 96.2464 32.4804 97.4371L31.6117 104.922L31.152 108.873C31.0949 109.37 31.0727 109.841 31.0886 110.286C31.1203 111.228 31.3169 112.046 31.6751 112.75C31.821 113.037 31.9922 113.306 32.1919 113.551C33.1145 114.686 34.4525 115.255 36.2057 115.255C37.6578 115.255 38.8784 114.987 39.874 114.451C40.9075 113.894 41.6906 113.05 42.2264 111.919C41.995 110.99 41.9443 109.933 42.0806 108.762Z" fill="#F6EFE1"/>
<path d="M54.8895 108.569L55.3778 104.343H50.5365L50.0197 108.818C49.9848 109.109 49.9341 109.364 49.8707 109.586C49.8294 109.724 49.7851 109.851 49.7312 109.962C49.709 110.012 49.6836 110.057 49.6582 110.103C49.5821 110.234 49.4965 110.342 49.3983 110.43C49.3887 110.437 49.3824 110.443 49.3729 110.45C49.3349 110.483 49.2968 110.512 49.2556 110.538C49.0907 110.643 48.9005 110.698 48.6849 110.698C48.52 110.698 48.3774 110.669 48.2537 110.61C48.1713 110.571 48.0984 110.519 48.035 110.453L48.0318 110.45C47.9811 110.394 47.9367 110.329 47.8986 110.254C47.8035 110.067 47.7528 109.812 47.7464 109.485C47.7464 109.485 47.7464 109.485 47.7464 109.482C47.7433 109.351 47.7496 109.21 47.7591 109.06C47.7655 108.984 47.7718 108.906 47.7813 108.824L47.9525 107.339L49.2207 96.3772C49.2556 96.0795 49.3063 95.8178 49.3697 95.5889C49.3856 95.5332 49.4046 95.4776 49.4205 95.4253C49.4744 95.2683 49.5409 95.1342 49.6139 95.0164C49.6614 94.9379 49.7185 94.8725 49.7819 94.8136C49.8136 94.7841 49.8485 94.758 49.8833 94.7351C50.0609 94.614 50.2828 94.5552 50.5491 94.5552C50.8916 94.5552 51.1388 94.65 51.291 94.8398C51.3132 94.8659 51.3322 94.8954 51.3513 94.9248C51.3576 94.9379 51.3671 94.9477 51.3735 94.9608C51.4749 95.1636 51.5161 95.4907 51.4971 95.9421C51.4939 96.0174 51.4876 96.0959 51.4813 96.1777C51.4749 96.2594 51.4654 96.3445 51.4559 96.4328L51.0311 100.1H55.8185L56.3131 95.8244C56.3923 95.1309 56.3923 94.4995 56.3131 93.9238C56.3099 93.8944 56.3035 93.8649 56.3004 93.8355C56.2433 93.4658 56.1545 93.1224 56.0277 92.8018C55.996 92.72 55.9611 92.6382 55.9231 92.5565C55.736 92.1574 55.4919 91.8008 55.1907 91.4868C54.6486 90.9241 53.9764 90.5185 53.1775 90.2732C52.9999 90.2176 52.816 90.1718 52.6258 90.1325C52.1502 90.0344 51.6366 89.9853 51.0818 89.9853C50.1909 89.9853 49.3919 90.1063 48.6817 90.3451C47.7686 90.6526 47.0046 91.1597 46.3863 91.863C45.4257 92.9588 44.7789 94.5159 44.4396 96.5408C44.4111 96.7043 44.3889 96.8712 44.3636 97.0413C44.3445 97.1721 44.3287 97.303 44.3128 97.4371L42.9907 108.873C42.9654 109.099 42.9464 109.321 42.9368 109.537C42.8512 111.209 43.2158 112.547 44.0307 113.551C44.037 113.558 44.0433 113.567 44.0497 113.574C44.9723 114.696 46.3039 115.255 48.0445 115.255C49.5631 115.255 50.8313 114.964 51.8459 114.379C52.2707 114.137 52.648 113.842 52.9872 113.495C53.2092 113.266 53.4121 113.014 53.5991 112.74C54.0398 112.085 54.3727 111.304 54.5978 110.394C54.639 110.231 54.6739 110.064 54.7056 109.894C54.7595 109.612 54.8071 109.321 54.842 109.017L54.8895 108.569Z" fill="#F6EFE1"/>
<path d="M55.6505 111.372L55.2827 114.663H64.1822L64.55 111.372H55.6505Z" fill="#F6EFE1"/>
</g>
<defs>
<clipPath id="clip0">
<rect width="51.5455" height="37.2" fill="white" transform="translate(14 85)"/>
</clipPath>
</defs>
</svg>
