<svg width="158" height="40" viewBox="0 0 158 40" fill="none" xmlns="http://www.w3.org/2000/svg">
<path d="M1.61721 13H5.40905C6.42852 13 7.13994 13.2319 7.54333 13.6957C7.94672 14.1595 8.0824 14.9166 7.95222 15.9652L7.88071 16.5399C7.72669 17.7812 7.15645 18.523 6.17182 18.7651C6.74022 18.9066 7.11061 19.234 7.28663 19.749C7.46082 20.2639 7.49566 20.9443 7.39114 21.7917C7.21879 23.1746 6.86674 24.2215 6.33317 24.9326C5.7996 25.6436 4.95249 26 3.79183 26H0L1.61721 13ZM4.5051 22.7449L4.70679 21.125C4.7563 20.7311 4.73063 20.4344 4.63161 20.2315C4.5326 20.0303 4.32541 19.928 4.01003 19.928H3.4893L3.0199 23.6964L3.29494 23.7117C4.02103 23.7134 4.42442 23.3911 4.5051 22.7449ZM4.31257 17.8869C4.55094 17.8869 4.72329 17.8034 4.83147 17.638C4.93965 17.4709 5.01116 17.2373 5.04967 16.9338L5.21102 15.6327C5.2642 15.2099 5.09001 14.9967 4.68845 14.9967H4.10354L3.74416 17.8869H4.31257Z" fill="#F6EFE1"/>
<path d="M8.60413 25.9983L9.13049 21.715L8 13H10.7295L10.9592 17.4044L12.2705 13H15L11.7315 21.7167L11.2052 26H8.60413V25.9983Z" fill="#F6EFE1"/>
<path d="M42.8469 6.03365C42.8469 7.54292 41.861 8.81814 40.7629 8.81814C39.6649 8.81814 39.1298 8.17967 39.1298 7.22282C39.1298 6.03365 40.2279 4.93052 40.2279 3.01682C40.2279 1.4215 39.2702 0.638472 37.8616 0.638472C34.8479 0.638472 30.7906 6.69965 30.7906 16.91C30.7906 27.5266 34.9883 36.4893 43.8608 36.4893C46.5938 36.4893 48.6216 35.1263 50.7616 33.1833C49.6074 32.168 48.5917 31.4434 47.634 31.4434C45.55 31.4434 45.6062 34.3725 43.7748 34.3725C42.9293 34.3725 42.3662 33.8803 42.3662 32.8357C42.3662 31.588 44.0011 30.3696 46.0009 30.3696C48.1129 30.3696 49.7477 31.3557 51.3247 32.6619C55.1277 29.0944 58.8465 24.3377 65.0983 24.3377C70.3941 24.3377 73.1551 28.0222 73.1551 31.8203C73.1551 35.8525 70.0292 40 63.4652 40C57.7747 40 54.0296 36.1416 51.2966 33.648C48.6777 36.2587 46.0289 38.2601 42.3101 38.2601C33.5499 38.2601 26 30.3128 26 19.087C26.0018 8.73037 32.0571 0 37.7756 0C40.7331 0 42.8469 2.78449 42.8469 6.03365ZM71.3536 31.8479C71.3536 28.4249 69.0715 25.0897 64.6773 25.0897C59.3254 25.0897 55.5785 29.325 51.8334 33.0956C54.819 35.7062 57.7484 39.2152 63.5511 39.2152C68.789 39.2152 71.3536 35.4739 71.3536 31.8479ZM41.961 25.1362C41.961 25.8899 42.2277 26.1515 42.7294 26.1515H43.6748C43.7626 26.2393 43.8222 26.4406 43.8222 26.5284C43.8222 26.6145 43.7626 26.7022 43.6748 26.7607H37.2599C37.1406 26.7022 37.1126 26.6454 37.1126 26.5577C37.1126 26.4699 37.1424 26.2393 37.2599 26.1515H38.0282C38.5896 26.1515 38.679 25.7161 38.679 25.2515V14.7227C38.679 14.2581 38.4422 13.9104 38.2054 13.9104C37.8212 13.9104 37.7616 14.2288 37.6142 14.2288C37.4371 14.2288 37.3476 14.1135 37.3476 13.9672C37.3476 13.8812 37.3774 13.6488 37.4371 13.5318C39.921 13.0104 41.0734 11.8487 41.4874 11.8487C41.7242 11.8487 41.961 12.0225 41.961 12.4872V25.1362ZM54.319 15.7673C54.319 17.0718 53.7279 18.2042 52.7824 18.2042C52.1614 18.2042 51.6878 17.7688 51.6878 17.0735C51.6878 16.2612 52.3684 15.6813 52.3684 14.4336C52.3684 13.3029 51.658 12.2876 50.6529 12.2876C49.2934 12.2876 47.8445 14.4921 47.8445 19.5104C47.8445 24.5287 48.9969 26.4131 50.2389 26.4131C52.5737 26.4131 53.9928 23.0487 53.9928 21.5411C53.9928 21.2503 54.1401 21.1057 54.3173 21.1057C54.4945 21.1057 54.7015 21.2795 54.7015 21.5411C54.7015 23.6579 52.8087 27.1101 49.9705 27.1101C47.3989 27.1101 44.4116 24.6732 44.4116 20.1196C44.4116 14.7244 47.2796 11.7954 50.4125 11.7954C53.1946 11.7937 54.319 13.9689 54.319 15.7673ZM59.0781 2.88947C59.1956 2.59863 59.4622 2.251 59.6692 2.251C59.906 2.251 60.1428 2.42482 60.1428 2.88947V25.1654C60.1428 25.9192 60.4095 26.1808 60.9111 26.1808H61.8566C61.9461 26.2686 62.004 26.4424 62.004 26.5284C62.004 26.6145 61.9443 26.7022 61.8566 26.7607H55.7364C55.6189 26.7022 55.5891 26.6454 55.5891 26.5577C55.5891 26.4699 55.6189 26.2686 55.7364 26.1808H56.5047C57.066 26.1808 57.1555 25.7454 57.1555 25.2825V7.84925C57.1555 7.38459 56.9187 7.03696 56.6819 7.03696C56.2977 7.03696 56.2381 7.35533 56.0907 7.35533C55.9136 7.35533 55.8241 7.24003 55.8241 7.09375C55.8241 7.00598 55.8539 6.91993 55.9136 6.80291C56.7415 6.10765 58.2501 5.00624 59.0781 2.88947ZM67.3261 25.1362C67.3261 25.8899 67.5927 26.1515 68.0944 26.1515H69.0399C69.1276 26.2393 69.1872 26.4406 69.1872 26.5284C69.1872 26.6145 69.1276 26.7022 69.0399 26.7607H62.625C62.5074 26.7022 62.4776 26.6454 62.4776 26.5577C62.4776 26.4699 62.5074 26.2393 62.625 26.1515H63.3933C63.9546 26.1515 64.0441 25.7161 64.0441 25.2515V14.7227C64.0441 14.2581 63.8073 13.9104 63.5704 13.9104C63.1863 13.9104 63.1266 14.2288 62.9793 14.2288C62.8021 14.2288 62.7127 14.1135 62.7127 13.9672C62.7127 13.8812 62.7425 13.6488 62.8004 13.5318C65.2842 13.0104 66.4367 11.8487 66.8507 11.8487C67.0875 11.8487 67.3243 12.0225 67.3243 12.4872V25.1362H67.3261ZM65.3158 5.52769C66.2613 5.52769 67.0595 6.5723 67.0595 7.90604C67.0595 9.23977 66.2613 10.2844 65.3158 10.2844C64.3703 10.2844 63.602 9.23977 63.602 7.90604C63.6003 6.5723 64.3703 5.52769 65.3158 5.52769ZM77.6142 11.8797C77.6142 12.2273 77.7615 16.201 77.7615 16.4041C77.7615 16.6364 77.644 16.781 77.437 16.781C77.2002 16.781 77.1423 16.6364 77.1423 16.4041C77.1423 14.0257 76.1968 12.5457 74.6883 12.5457C73.506 12.5457 72.7657 13.4733 72.7657 14.3734C72.7657 17.4762 78.886 18.7239 78.886 22.6976C78.886 25.6852 76.4617 27.1927 74.0971 27.1927C71.7325 27.1927 69.4258 25.7419 69.4258 22.8421C69.4258 21.6822 70.017 21.1315 70.6677 21.1315C71.2589 21.1315 71.9097 21.6822 71.9097 22.6683C71.9097 23.5959 71.1115 24.3514 71.1115 25.0759C71.1115 25.8297 72.1763 26.4389 73.2692 26.4389C74.4515 26.4389 75.6636 25.7437 75.6636 23.8283C75.6636 20.8699 70.2239 20.2022 70.2239 16.1132C70.2239 13.9087 71.5536 11.9658 74.3638 11.9658C75.1917 11.9658 75.753 12.3134 76.2565 12.3134C77.1441 12.3134 76.8774 11.5596 77.3213 11.5596C77.5546 11.5613 77.6142 11.7059 77.6142 11.8797ZM104.932 11.7644C108.243 11.7644 110.933 15.2166 110.933 19.4502C110.933 20.6978 110.696 21.887 110.282 22.9316C111.878 24.0916 112.646 25.9192 112.646 27.8054C112.646 31.4607 109.838 35.4051 104.753 35.4051C97.6273 35.4051 94.4049 30.4746 94.4049 25.6301V15.5057C94.4049 14.0842 93.6068 13.389 92.6017 13.389C91.686 13.389 90.8861 14.2598 90.8861 15.5935V25.427C90.8861 25.7746 91.3001 26.1808 91.7737 26.1808H92.5719C92.6894 26.2686 92.749 26.4424 92.749 26.5284C92.749 26.6145 92.6894 26.7022 92.5719 26.7607H86.7481C86.6288 26.7022 86.5709 26.6454 86.5709 26.5577C86.5709 26.4699 86.6305 26.2686 86.7481 26.1808H87.2796C87.8111 26.1808 87.99 25.7161 87.99 25.4855V15.8826C87.99 14.055 87.162 13.272 86.1569 13.272C85.5061 13.272 84.2344 13.9672 84.2344 15.9411V25.1654C84.2344 25.9192 84.501 26.1808 85.0027 26.1808H85.9482C86.0359 26.2686 86.0955 26.4424 86.0955 26.5284C86.0955 26.6145 86.0359 26.7022 85.9482 26.7607H79.5332C79.4157 26.7022 79.3859 26.6454 79.3859 26.5577C79.3859 26.4699 79.4157 26.2686 79.5332 26.1808H80.3016C80.8629 26.1808 80.9523 25.7454 80.9523 25.2825V14.5782C80.9523 14.1135 80.7155 13.7659 80.4787 13.7659C80.0946 13.7659 80.0349 14.0842 79.8876 14.0842C79.7104 14.0842 79.6209 13.9689 79.6209 13.8227C79.6209 13.7366 79.6508 13.6488 79.7104 13.5335C82.1943 13.0121 83.3468 11.8505 83.7607 11.8505C83.9976 11.8505 84.2344 12.0243 84.2344 12.4889V13.6781C84.6782 13.0104 85.8605 12.112 87.6041 12.112C88.9057 12.112 90.2353 12.8366 90.5318 13.7659C90.7686 13.2737 91.8912 12.112 93.6366 12.112C95.5872 12.112 97.5694 13.389 97.5694 16.6657V25.5113C97.5694 30.965 99.8463 34.7356 104.902 34.7356C109.366 34.7356 112.027 30.9943 112.027 27.7744C112.027 25.8022 111.199 24.3222 110.077 23.4238C109.012 25.6576 107.121 27.1359 104.932 27.1359C101.62 27.1359 98.9307 23.6837 98.9307 19.4502C98.9307 15.2166 101.622 11.7644 104.932 11.7644ZM104.872 26.6145C105.817 26.6145 106.705 25.7161 107.03 22.4962C106.084 22.8146 105.581 24.1793 104.428 24.1793C103.955 24.1793 103.57 23.7732 103.57 23.2793C103.57 22.4962 104.309 21.7132 105.965 21.7132C106.349 21.7132 106.733 21.7425 107.087 21.77C107.147 21.0747 107.177 20.3192 107.177 19.4209C107.177 13.9397 106.082 12.2273 104.87 12.2273C103.628 12.2273 102.534 14.1995 102.534 19.4209C102.537 25.0191 103.632 26.6145 104.872 26.6145ZM116.462 25.1654C116.462 25.9192 116.728 26.1808 117.23 26.1808H118.175C118.265 26.2686 118.323 26.4424 118.323 26.5284C118.323 26.6145 118.263 26.7022 118.175 26.7607H111.761C111.643 26.7022 111.613 26.6454 111.613 26.5577C111.613 26.4699 111.643 26.2686 111.761 26.1808H112.529C113.09 26.1808 113.18 25.7454 113.18 25.2825V15.0136C113.18 14.5489 112.943 14.2013 112.706 14.2013C112.322 14.2013 112.262 14.5196 112.115 14.5196C111.938 14.5196 111.848 14.4043 111.848 14.2581C111.848 14.1703 111.878 13.9397 111.936 13.8227C114.42 13.3012 115.572 12.1413 115.986 12.1413C116.223 12.1413 116.46 12.3151 116.46 12.7798V14.8397C117.288 12.3736 121.308 6.5723 128.818 6.5723C130.414 6.5723 131.568 7.15226 131.568 8.19688C131.568 8.83535 131.065 9.26903 130.267 9.26903C129.351 9.26903 128.641 7.93529 127.222 7.93529C121.101 7.93529 116.46 13.9397 116.46 18.0579V25.1654H116.462ZM129.825 18.5518C129.825 18.8995 129.677 19.0148 129.441 19.0148C128.997 19.0148 128.346 18.8702 127.134 18.8702C125.745 18.8702 123.882 19.6532 122.67 20.7271C122.847 24.8453 123.912 26.4114 125.064 26.4114C127.399 26.4114 128.82 23.0469 128.82 21.5394C128.82 21.2486 128.967 21.104 129.144 21.104C129.321 21.104 129.528 21.2778 129.528 21.5394C129.528 23.6562 127.636 27.1084 124.797 27.1084C122.226 27.1084 119.238 24.6715 119.238 20.1179C119.238 14.7227 121.957 11.7937 124.797 11.7937C127.637 11.7937 129.825 15.0136 129.825 18.5518ZM126.159 17.7688C126.159 15.4197 125.655 12.2859 124.769 12.2859C123.794 12.2859 122.671 14.4904 122.671 19.5087V19.7995C123.41 19.1903 124.415 18.6688 125.273 18.3488C125.745 18.1749 126.159 18.0304 126.159 17.7688ZM139.048 22.1193C137.333 23.1347 136.003 24.527 135.292 26.1223C135.41 26.1515 135.529 26.1808 135.677 26.1808H136.622C136.712 26.2686 136.769 26.4424 136.769 26.5284C136.769 26.6145 136.712 26.7022 136.622 26.7607H135.056C134.849 27.3407 134.761 27.9792 134.761 28.6176C134.761 31.3436 137.155 31.3729 138.073 31.8668C138.783 32.2437 139.048 32.7651 139.048 33.259C139.048 34.0421 138.31 34.7666 137.452 34.7666C135.087 34.7666 133.845 31.779 133.845 28.9653C133.845 28.2115 133.963 27.4577 134.2 26.7607H130.209C130.091 26.7022 130.062 26.6454 130.062 26.5577C130.062 26.4699 130.091 26.2686 130.209 26.1808H130.977C131.539 26.1808 131.628 25.7454 131.628 25.2825V14.5782C131.628 14.1135 131.391 13.7659 131.154 13.7659C130.77 13.7659 130.711 14.0842 130.563 14.0842C130.386 14.0842 130.297 13.9689 130.297 13.8227C130.297 13.7366 130.326 13.6488 130.386 13.5335C132.87 13.0121 134.022 11.8505 134.436 11.8505C134.673 11.8505 134.91 12.0243 134.91 12.4889V13.6781C135.235 13.2134 135.915 12.6042 136.92 12.3151C137.601 9.4721 140.113 6.74612 144.961 6.74612C150.431 6.74612 153.388 10.0245 153.388 16.0272L153.271 21.7993C156.256 23.5976 158 26.3529 158 29.0496C158 33.3709 154.955 37.6647 148.954 37.6647C143.395 37.6647 139.05 34.3587 139.05 26.759V22.1193H139.048ZM139.048 21.4224V18.3763C137.452 17.3609 136.741 15.6503 136.741 13.8519C136.741 13.6781 136.741 13.475 136.771 13.272C135.796 13.4458 134.908 14.3734 134.908 15.9411V25.1654V25.2239C135.826 23.6854 137.275 22.3517 139.048 21.4224ZM137.599 13.3305C137.569 13.5043 137.569 13.6506 137.569 13.8227C137.569 15.3027 138.013 16.7225 139.048 17.5933V15.8534C139.048 14.3751 138.397 13.5628 137.599 13.3305ZM145.64 19.7995C145.995 19.7995 146.321 19.8288 146.675 19.8288C147.975 19.1318 149.366 18.4658 150.252 17.4504L150.282 15.7966V15.449C150.282 10.663 147.828 8.02306 143.718 8.02306C140.495 8.02306 138.515 9.99527 137.834 12.1413C137.952 12.112 138.101 12.112 138.248 12.112C140.199 12.112 142.151 13.389 142.151 16.6657V18.4348C145.167 18.1164 142.742 14.7795 145.226 14.7795C145.965 14.7795 146.616 15.4472 146.616 16.3163C146.616 17.564 145.226 19.3039 142.653 19.3039H142.149V20.2315C143.246 19.9733 144.428 19.7995 145.64 19.7995ZM150.047 25.976C149.456 26.5852 148.538 27.0499 147.326 27.0499C144.784 27.0499 143.216 25.9485 143.216 23.947C143.216 22.2364 144.339 21.221 145.73 20.3502H145.553C144.37 20.3502 143.218 20.524 142.153 20.8149V25.7746C142.153 34.0128 145.465 37.1742 149.101 37.1742C153.448 37.1742 156.227 33.5774 156.227 29.1684C156.227 26.8485 155.192 24.5855 153.241 22.9316L153.211 25.4253C153.211 25.7729 153.418 26.1791 153.892 26.1791H154.63C154.807 26.1791 154.897 26.3236 154.897 26.4699C154.897 26.6145 154.807 26.7607 154.69 26.7607H150.373C150.166 26.7607 150.048 26.6454 150.048 26.4424V25.976H150.047ZM148.243 20.6101C147.298 21.5394 146.5 22.4962 146.5 24.0623C146.5 25.396 147.268 26.1791 148.156 26.1791C149.101 26.1791 149.722 25.5406 150.076 24.8453L150.166 21.1332C149.573 20.9302 148.922 20.7271 148.243 20.6101ZM150.164 20.4363L150.224 18.5226C149.78 19.1318 149.278 19.624 148.775 20.1179C149.277 20.2057 149.72 20.321 150.164 20.4363Z" fill="#F6EFE1"/>
</svg>
