<svg width="894" height="594" viewBox="0 0 894 594" fill="none" xmlns="http://www.w3.org/2000/svg">
<path d="M825.316 179.77L828.047 156.13H894L891.269 179.77H825.316Z" fill="#F6EFE1"/>
<path d="M617.974 386.04L620.705 362.4H686.658L683.928 386.04H617.974Z" fill="#F6EFE1"/>
<path d="M571.915 592.34L574.646 568.7H640.599L637.868 592.34H571.915Z" fill="#F6EFE1"/>
<path d="M0 179.77L38.4877 1.66016H98.8399L94.579 179.77H60.7722L61.7224 150.95H40.1481L34.637 179.77H0ZM46.2393 122.54H62.4126L65.3531 31.9302H63.6928L46.2393 122.54Z" fill="#F6EFE1"/>
<path d="M126.625 1.66016H181.377C190.088 1.66016 196.59 3.63016 200.89 7.57016C205.191 11.5102 207.742 17.0402 208.552 24.1602C209.362 31.2802 209.102 40.3702 207.782 51.4302C206.572 61.5202 204.321 69.4002 201.02 75.0702C197.72 80.7402 192.679 84.6802 185.917 86.8902C191.178 88.0002 194.759 90.6902 196.67 94.9802C198.57 99.2702 199.09 105.07 198.22 112.4L189.758 179.79H154.921L163.243 110.12C163.833 105.14 163.253 101.97 161.483 100.58C159.712 99.2002 156.271 98.5102 151.15 98.5102L141.448 179.79H105.361L126.625 1.66016ZM163.543 67.6002C168.524 67.6002 171.655 62.2102 172.945 51.4302C173.505 46.7302 173.715 43.2102 173.585 40.8602C173.455 38.5102 172.885 36.8902 171.885 35.9902C170.884 35.0902 169.354 34.6402 167.274 34.6402H158.982L155.041 67.6102H163.543V67.6002Z" fill="#F6EFE1"/>
<path d="M213.683 167.85C208.472 158.8 206.962 145.08 209.162 126.69L218.324 49.97C220.284 33.52 225.435 21.08 233.777 12.65C242.099 4.22 253.531 0 268.044 0C279.796 0 288.638 2.35 294.579 7.05C300.511 11.75 304.191 18.59 305.612 27.58C307.032 36.57 306.892 48.11 305.211 62.21H270.374L272.285 46.24C272.795 41.96 272.605 38.64 271.715 36.29C270.815 33.94 268.854 32.77 265.814 32.77C259.042 32.77 255.121 37.2 254.071 46.04L243.769 132.3C243.129 137.69 243.329 141.77 244.379 144.53C245.429 147.3 247.69 148.68 251.141 148.68C254.591 148.68 257.182 147.3 258.892 144.53C260.602 141.77 261.783 137.69 262.423 132.3L265.473 106.8H255.932L259.592 76.11H303.141L290.759 179.77H276.446L272.215 164.84C264.533 175.9 254.061 181.43 240.788 181.43C227.926 181.43 218.894 176.9 213.683 167.85Z" fill="#F6EFE1"/>
<path d="M304.851 179.77L326.126 1.66016H397.47L393.359 36.0802H358.312L354.181 70.7102H387.778L383.767 104.3H350.171L345.29 145.15H382.617L378.486 179.78H304.851V179.77Z" fill="#F6EFE1"/>
<path d="M390.299 179.77L411.563 1.66016H448.27L454.482 86.8801L464.654 1.66016H499.08L477.806 179.77H442.969L435.778 90.6102L425.126 179.77H390.299Z" fill="#F6EFE1"/>
<path d="M508.922 179.77L526.106 35.8702H504.952L509.032 1.66016H587.008L582.927 35.8702H561.773L544.59 179.77H508.922Z" fill="#F6EFE1"/>
<path d="M574.036 179.77L595.31 1.66016H629.737L608.463 179.77H574.036Z" fill="#F6EFE1"/>
<path d="M622.775 179.77L644.04 1.66016H680.747L686.958 86.8801L697.13 1.66016H731.557L710.283 179.77H675.446L668.255 90.6102L657.602 179.77H622.775Z" fill="#F6EFE1"/>
<path d="M721.275 179.77L759.763 1.66016H820.115L815.854 179.77H782.047L782.998 150.95H761.433L755.922 179.77H721.275ZM767.514 122.54H783.688L786.628 31.9302H784.968L767.514 122.54Z" fill="#F6EFE1"/>
<path d="M9.46188 375.46C2.62051 367.31 0.0599911 356.11 1.76033 341.87L11.5623 259.76C13.6727 242.07 18.7938 228.73 26.9154 219.74C35.037 210.76 46.6394 206.26 61.7024 206.26C74.835 206.26 84.9871 209.86 92.1485 217.04C99.31 224.23 102.081 234.6 100.46 248.14L96.7995 278.83H61.3323L64.473 252.5C65.0831 247.39 64.883 243.86 63.8728 241.93C62.8626 240 60.8322 239.03 57.7916 239.03C54.611 239.03 52.3005 240.14 50.8602 242.35C49.4199 244.56 48.4497 247.81 47.9296 252.1L37.2575 341.47C36.6974 346.17 36.9774 349.59 38.1077 351.73C39.2279 353.87 41.1783 354.94 43.9488 354.94C49.4799 354.94 52.7806 350.45 53.8508 341.46L57.6916 309.32H93.5688L89.558 342.91C85.9973 372.77 69.2139 387.7 39.2079 387.7C26.2153 387.7 16.2933 383.62 9.46188 375.46Z" fill="#F6EFE1"/>
<path d="M117.804 386.04L124.815 327.36L110.662 207.93H145.919L148.67 268.27L165.833 207.93H201.09L158.412 327.36L151.4 386.04H117.804Z" fill="#F6EFE1"/>
<path d="M200.26 375.46C193.419 367.31 190.858 356.11 192.559 341.87L202.361 259.76C204.471 242.07 209.592 228.73 217.714 219.74C225.835 210.76 237.438 206.26 252.501 206.26C265.633 206.26 275.786 209.86 282.947 217.04C290.108 224.23 292.879 234.6 291.259 248.14L287.598 278.83H252.131L255.271 252.5C255.882 247.39 255.681 243.86 254.671 241.93C253.661 240 251.631 239.03 248.59 239.03C245.409 239.03 243.099 240.14 241.659 242.35C240.218 244.56 239.248 247.81 238.728 252.1L228.056 341.47C227.496 346.17 227.776 349.59 228.906 351.73C230.026 353.87 231.977 354.94 234.747 354.94C240.278 354.94 243.579 350.45 244.649 341.46L248.49 309.32H284.367L280.356 342.91C276.786 372.77 260.002 387.7 230.006 387.7C217.014 387.7 207.092 383.62 200.26 375.46Z" fill="#F6EFE1"/>
<path d="M287.028 386.04L308.302 207.93H343.969L326.316 355.77H363.023L359.412 386.04H287.028Z" fill="#F6EFE1"/>
<path d="M367.704 386.04L388.978 207.93H423.405L402.131 386.04H367.704Z" fill="#F6EFE1"/>
<path d="M416.434 386.04L437.708 207.93H474.416L480.627 293.15L490.799 207.93H525.226L503.951 386.04H469.114L461.923 296.88L451.271 386.04H416.434Z" fill="#F6EFE1"/>
<path d="M529.117 374.12C523.905 365.07 522.395 351.35 524.596 332.96L533.757 256.24C535.718 239.79 540.869 227.35 549.211 218.92C557.542 210.49 568.975 206.27 583.487 206.27C595.24 206.27 604.082 208.62 610.023 213.32C615.954 218.02 619.635 224.86 621.055 233.85C622.475 242.84 622.335 254.38 620.655 268.48H585.818L587.728 252.51C588.238 248.23 588.048 244.91 587.158 242.56C586.258 240.21 584.298 239.04 581.257 239.04C574.486 239.04 570.565 243.47 569.515 252.31L559.213 338.57C558.572 343.96 558.773 348.04 559.823 350.8C560.873 353.57 563.123 354.95 566.584 354.95C570.035 354.95 572.625 353.57 574.336 350.8C576.046 348.04 577.226 343.96 577.866 338.57L580.907 313.07H571.365L575.026 282.38H618.575L606.192 386.05H591.879L587.648 371.12C579.967 382.18 569.495 387.71 556.222 387.71C543.359 387.7 534.328 383.17 529.117 374.12Z" fill="#F6EFE1"/>
<path d="M8.23166 581.77C1.39028 573.62 -1.17023 562.42 0.530109 548.18L10.3321 466.07C12.4425 448.38 17.5635 435.04 25.6852 426.05C33.8068 417.07 45.4091 412.57 60.4722 412.57C73.6048 412.57 83.7569 416.17 90.9183 423.35C98.0798 430.54 100.85 440.91 99.23 454.45L95.5692 485.14H60.1021L63.2427 458.81C63.8529 453.7 63.6528 450.17 62.6426 448.24C61.6324 446.31 59.602 445.34 56.5614 445.34C53.3807 445.34 51.0703 446.45 49.63 448.66C48.1897 450.87 47.2195 454.12 46.6994 458.41L36.0273 547.78C35.4671 552.48 35.7472 555.9 36.8774 558.04C37.9977 560.18 39.948 561.25 42.7186 561.25C48.2497 561.25 51.5504 556.76 52.6206 547.77L56.4614 515.63H92.3386L88.3278 549.22C84.7671 579.07 67.9837 594 37.9776 594C24.985 594 15.063 589.92 8.23166 581.77Z" fill="#F6EFE1"/>
<path d="M94.9991 592.34L116.273 414.23H151.941L134.287 562.07H170.994L167.384 592.34H94.9991Z" fill="#F6EFE1"/>
<path d="M175.675 592.34L196.95 414.23H231.377L210.102 592.34H175.675Z" fill="#F6EFE1"/>
<path d="M224.405 592.34L245.679 414.23H300.01L301.971 522.88L329.876 414.23H384.627L363.353 592.34H330.797L346.12 463.99L310.262 592.34H278.326L271.875 463.99L256.552 592.34H224.405Z" fill="#F6EFE1"/>
<path d="M400.391 414.23H448.71C461.703 414.23 470.765 417.41 475.876 423.77C480.987 430.13 482.697 440.5 480.977 454.87L480.037 462.75C478.006 479.75 470.705 489.91 458.142 493.23C465.374 495.17 470.095 499.66 472.295 506.71C474.496 513.76 474.906 523.09 473.515 534.7C471.255 553.64 466.704 567.98 459.873 577.72C453.041 587.47 442.229 592.34 427.436 592.34H379.116L400.391 414.23ZM436.698 547.76L439.348 525.57C439.989 520.18 439.679 516.1 438.428 513.34C437.168 510.58 434.527 509.19 430.527 509.19H423.885L417.724 560.82L421.225 561.03C430.487 561.03 435.648 556.61 436.698 547.76ZM434.487 481.2C437.528 481.2 439.739 480.06 441.119 477.78C442.499 475.5 443.429 472.29 443.929 468.14L446.06 450.31C446.75 444.5 444.539 441.6 439.428 441.6H431.967L427.236 481.2H434.487Z" fill="#F6EFE1"/>
<path d="M486.948 581.97C480.717 573.95 478.666 561.03 480.797 543.2L482.877 525.78H517.924L515.274 547.97C514.214 556.82 516.524 561.24 522.195 561.24C525.376 561.24 527.696 560.31 529.167 558.44C530.637 556.57 531.627 553.43 532.157 549.01C532.847 543.2 532.727 538.4 531.807 534.6C530.877 530.8 529.497 527.62 527.656 525.06C525.816 522.5 522.455 518.53 517.574 513.14L504.061 497.8C493.559 486.19 489.148 473.33 490.829 459.23C492.649 444.03 497.52 432.45 505.452 424.5C513.383 416.55 524.055 412.58 537.468 412.58C553.501 412.58 564.544 416.83 570.575 425.33C576.606 433.83 578.546 447.14 576.386 465.24H540.089L541.339 453.01C541.619 450.66 541.189 448.79 540.039 447.41C538.888 446.03 537.138 445.34 534.788 445.34C532.017 445.34 529.857 446.1 528.296 447.62C526.726 449.14 525.796 451.22 525.476 453.84C524.786 459.65 527.386 465.66 533.277 471.88L551.641 491.79C555.922 496.49 559.393 500.95 562.073 505.16C564.744 509.38 566.714 514.35 567.964 520.09C569.215 525.83 569.375 532.63 568.424 540.51C566.324 558.07 561.523 571.37 554.012 580.42C546.5 589.48 535.348 594 520.555 594C504.392 594 493.179 589.99 486.948 581.97Z" fill="#F6EFE1"/>
</svg>
