<svg width="16" height="16" viewBox="0 0 16 16" fill="none" xmlns="http://www.w3.org/2000/svg">
<path d="M0 0V12H4V16H16V4H12V0H0ZM1.33333 1.33333H10.6667V4.375L4.375 10.6667H1.33333V1.33333ZM4.66667 2.66667V3.33333H2.66667V4.66667H5.95833C5.8724 5.43229 5.63802 6.03646 5.25 6.45833C5.02083 6.38281 4.8151 6.28906 4.64583 6.1875C4.17708 5.90885 4 5.61198 4 5.33333H2.66667C2.66667 6.1276 3.15625 6.78906 3.8125 7.22917C3.48438 7.29948 3.10417 7.33333 2.66667 7.33333V8.66667C3.84896 8.66667 4.83333 8.39583 5.58333 7.89583C5.93229 7.95573 6.28646 8 6.66667 8V6.75C7.02865 6.14323 7.22135 5.4349 7.29167 4.66667H8V3.33333H6V2.66667H4.66667ZM11.625 5.33333H14.6667V14.6667H5.33333V11.625L11.625 5.33333ZM10.6667 6.5625L10.0417 8.45833L8.70833 12.4583L8.66667 12.5625V13.3333H10V12.75L10.0208 12.6667H11.3125L11.3333 12.75V13.3333H12.6667V12.5625L12.625 12.4583L11.2917 8.45833L10.6667 6.5625ZM10.6667 10.75L10.8542 11.3333H10.4792L10.6667 10.75Z" fill="#F6EFE1"/>
</svg>
