<svg width="32" height="32" viewBox="0 0 32 32" fill="none" xmlns="http://www.w3.org/2000/svg">
<path d="M16 0C7.17785 0 0 7.17785 0 16C0 24.8222 7.17785 32 16 32C24.8222 32 32 24.8222 32 16C32 7.17785 24.8222 0 16 0ZM16 2.46154C16.416 2.46154 16.8246 2.48712 17.2308 2.52404V3.69231H19.6923V2.98558C22.7175 3.84588 25.312 5.72838 27.0769 8.24039V12.3077L28.3077 14.7692V16H29.5385C29.5385 16.4505 29.5142 16.8972 29.4712 17.3365C29.4601 17.4547 29.4354 17.5682 29.4207 17.6851C29.3801 18.0088 29.338 18.3303 29.274 18.6466C29.2507 18.7648 29.2194 18.8807 29.1923 18.9976C29.1209 19.3102 29.0442 19.6215 28.9519 19.9255C28.9199 20.0301 28.883 20.1322 28.8486 20.2356C28.7452 20.5482 28.6352 20.8583 28.5096 21.1611C28.4727 21.2497 28.4324 21.3357 28.3942 21.4231C28.2564 21.7369 28.1119 22.0458 27.9519 22.3462C27.9138 22.4188 27.8723 22.4899 27.8317 22.5601C27.6594 22.8703 27.4769 23.171 27.2813 23.4663C27.2431 23.5242 27.2028 23.584 27.1635 23.6418C26.9567 23.9434 26.7374 24.2362 26.5072 24.5192C26.4691 24.566 26.4348 24.6107 26.3966 24.6562C26.1579 24.943 25.9052 25.2173 25.6442 25.4832C25.6061 25.5213 25.5694 25.5628 25.5312 25.601C25.2642 25.8656 24.9851 26.1193 24.6971 26.3606C24.6565 26.395 24.6212 26.4307 24.5793 26.4639C24.2913 26.7003 23.9892 26.9205 23.6827 27.1322C23.6347 27.1654 23.5913 27.2036 23.5433 27.2356C23.2491 27.4337 22.9424 27.6137 22.6322 27.7885C21.1873 28.5995 19.581 29.158 17.8678 29.3918L22.8053 25.6707L24.1587 24.3173L25.8462 20.9231V19.6923L23.3846 18.4615H22.1538L19.6923 16H17.2308L16 17.2308V18.4615L14.7692 19.6923V22.1538L17.2308 24.1226L14.7981 29.4784C7.89469 28.8654 2.46154 23.0585 2.46154 16C2.46154 11.8055 4.38031 8.05106 7.38462 5.5649V6.15385L6.15385 7.38462V10.0913L7.38462 14.7692L13.5385 17.2308H14.7692V16L11.0769 14.7692V12.3077H14.7692L16 9.23077L18.4615 7.38462V6.15385L14.7692 3.69231L13 2.80769C13.9662 2.58862 14.9674 2.46154 16 2.46154ZM14.7692 13.5385V14.7692H17.2308V13.5385H14.7692Z" fill="#F6EFE1"/>
</svg>
