<svg xmlns="http://www.w3.org/2000/svg" width="775" height="515" fill="none" viewBox="0 0 775 515">
    <path fill="#F6EFE1" d="M715.459 155.861l2.367-20.496H775l-2.367 20.496h-57.174zM535.716 334.698l2.367-20.496h57.174l-2.367 20.496h-57.174zM495.788 513.561l2.367-20.496h57.174l-2.367 20.496h-57.174zM0 155.861L33.365 1.439h52.318L81.99 155.861H52.683l.824-24.987H34.804l-4.778 24.987H0zm40.084-49.618h14.02l2.55-78.56h-1.44l-15.13 78.56zM109.77 1.44h47.464c7.552 0 13.188 1.707 16.916 5.123 3.728 3.416 5.939 8.21 6.642 14.384.702 6.173.477 14.054-.668 23.643-1.049 8.748-3 15.58-5.861 20.496-2.862 4.916-7.232 8.332-13.093 10.248 4.561.962 7.665 3.294 9.321 7.014 1.647 3.72 2.098 8.748 1.344 15.103L164.5 155.88h-30.2l7.214-60.405c.511-4.317.008-7.066-1.526-8.27-1.535-1.197-4.518-1.795-8.957-1.795l-8.411 70.47H91.337L109.77 1.439zm32.004 57.17c4.318 0 7.032-4.674 8.15-14.02.486-4.075.668-7.127.555-9.164-.113-2.038-.607-3.442-1.474-4.223-.867-.78-2.194-1.17-3.997-1.17h-7.188l-3.416 28.585h7.37v-.009zM185.24 145.527c-4.518-7.847-5.827-19.742-3.919-35.686l7.942-66.517c1.699-14.262 6.165-25.048 13.396-32.356C209.873 3.658 219.784 0 232.365 0c10.188 0 17.853 2.037 23.003 6.112 5.142 4.075 8.332 10.006 9.564 17.8 1.231 7.794 1.11 17.8-.347 30.024h-30.2l1.656-13.846c.442-3.71.278-6.589-.494-8.626-.78-2.038-2.48-3.052-5.116-3.052-5.87 0-9.269 3.84-10.179 11.505l-8.931 74.788c-.555 4.673-.381 8.21.529 10.603.91 2.402 2.87 3.598 5.861 3.598 2.992 0 5.237-1.196 6.72-3.598 1.483-2.393 2.506-5.93 3.061-10.603l2.644-22.109h-8.271l3.173-26.608h37.752l-10.734 89.873h-12.408l-3.668-12.944c-6.659 9.589-15.737 14.383-27.243 14.383-11.15 0-18.98-3.927-23.497-11.773zM264.273 155.861L282.715 1.439h61.848l-3.564 29.843h-30.382l-3.581 30.024h29.125l-3.477 29.122h-29.125l-4.231 35.418h32.359l-3.581 30.024h-63.833v-.009zM338.346 155.861L356.78 1.439h31.821l5.385 73.886 8.818-73.886h29.844l-18.442 154.422h-30.2l-6.234-77.302-9.235 77.302h-30.191zM441.18 155.861l14.896-124.762h-18.338l3.537-29.66h67.597l-3.538 29.66h-18.338L472.1 155.861h-30.92zM497.626 155.861L516.068 1.439h29.845L527.47 155.861h-29.844zM539.878 155.861L558.312 1.439h31.821l5.385 73.886 8.818-73.886h29.844l-18.442 154.422h-30.2l-6.235-77.302-9.234 77.302h-30.191zM625.267 155.861L658.631 1.439h52.319l-3.694 154.422h-29.307l.824-24.987h-18.694l-4.777 24.987h-30.035zm40.084-49.618h14.02l2.55-78.56h-1.44l-15.13 78.56zM8.202 325.525c-5.93-7.066-8.15-16.776-6.676-29.123l8.497-71.189c1.83-15.337 6.27-26.903 13.31-34.698 7.04-7.785 17.098-11.687 30.156-11.687 11.385 0 20.185 3.121 26.394 9.346 6.208 6.234 8.61 15.225 7.205 26.964l-3.173 26.609H53.168l2.723-22.829c.529-4.43.355-7.491-.52-9.164-.876-1.673-2.636-2.514-5.272-2.514-2.757 0-4.76.962-6.009 2.878-1.248 1.916-2.09 4.734-2.54 8.454l-9.252 77.484c-.485 4.075-.243 7.04.737 8.895.971 1.855 2.662 2.783 5.064 2.783 4.795 0 7.656-3.893 8.584-11.687l3.33-27.866h31.1l-3.476 29.123c-3.087 25.889-17.636 38.833-43.648 38.833-11.263 0-19.864-3.537-25.787-10.612zM102.123 334.698l6.078-50.876-12.269-103.546h30.564l2.385 52.315 14.878-52.315h30.564l-36.997 103.546-6.078 50.876h-29.125zM173.604 325.525c-5.931-7.066-8.151-16.776-6.677-29.123l8.498-71.189c1.829-15.337 6.268-26.903 13.309-34.698 7.041-7.785 17.099-11.687 30.157-11.687 11.384 0 20.185 3.121 26.393 9.346 6.208 6.234 8.61 15.225 7.205 26.964l-3.173 26.609H218.57l2.722-22.829c.529-4.43.356-7.491-.52-9.164s-2.636-2.514-5.272-2.514c-2.757 0-4.76.962-6.008 2.878-1.249 1.916-2.09 4.734-2.541 8.454l-9.252 77.484c-.485 4.075-.242 7.04.737 8.895.972 1.855 2.662 2.783 5.064 2.783 4.795 0 7.656-3.893 8.584-11.687l3.33-27.866h31.101l-3.477 29.123c-3.095 25.889-17.644 38.833-43.648 38.833-11.263 0-19.864-3.537-25.786-10.612zM248.822 334.698l18.442-154.422h30.92L282.88 308.454h31.821l-3.13 26.244h-62.749zM318.759 334.698l18.443-154.422h29.844l-18.443 154.422h-29.844zM361.002 334.698l18.443-154.422h31.821l5.385 73.886 8.818-73.886h29.844l-18.442 154.422h-30.2l-6.234-77.302-9.235 77.302h-30.2zM458.686 324.363c-4.517-7.846-5.827-19.741-3.919-35.686l7.942-66.516c1.7-14.262 6.165-25.048 13.396-32.357 7.223-7.308 17.134-10.967 29.715-10.967 10.188 0 17.853 2.037 23.003 6.112 5.142 4.075 8.332 10.005 9.564 17.8 1.231 7.794 1.109 17.799-.347 30.024h-30.2l1.656-13.846c.442-3.711.277-6.589-.494-8.627-.781-2.037-2.48-3.052-5.116-3.052-5.87 0-9.269 3.841-10.179 11.506l-8.931 74.787c-.555 4.673-.382 8.211.529 10.604.91 2.401 2.861 3.598 5.861 3.598 2.992 0 5.237-1.197 6.72-3.598 1.483-2.393 2.506-5.931 3.061-10.604l2.636-22.108h-8.272l3.173-26.609h37.752l-10.734 89.883h-12.408l-3.667-12.945c-6.659 9.589-15.738 14.384-27.244 14.384-11.15-.009-18.98-3.936-23.497-11.783zM7.136 504.397c-5.93-7.067-8.15-16.777-6.676-29.123l8.497-71.19c1.83-15.337 6.269-26.903 13.31-34.697 7.04-7.786 17.098-11.687 30.156-11.687 11.384 0 20.185 3.121 26.393 9.346 6.208 6.234 8.61 15.224 7.206 26.964l-3.174 26.608H52.102l2.723-22.828c.528-4.431.355-7.491-.52-9.164-.877-1.674-2.637-2.515-5.273-2.515-2.757 0-4.76.963-6.008 2.879-1.249 1.916-2.09 4.734-2.54 8.453l-9.252 77.484c-.486 4.075-.243 7.04.737 8.896.97 1.855 2.661 2.783 5.063 2.783 4.795 0 7.657-3.893 8.584-11.688l3.33-27.865h31.101l-3.477 29.123C73.484 502.056 58.934 515 32.922 515c-11.263 0-19.864-3.537-25.786-10.603zM82.354 513.561l18.442-154.422h30.92l-15.304 128.178h31.821l-3.13 26.244h-62.75zM152.291 513.561l18.443-154.422h29.844l-18.442 154.422h-29.845zM194.535 513.561l18.442-154.422h47.099l1.7 94.2 24.191-94.2h47.463l-18.443 154.422h-28.223l13.284-111.28-31.084 111.28h-27.686l-5.592-111.28-13.284 111.28h-27.867zM347.095 359.139h41.888c11.263 0 19.118 2.757 23.549 8.271 4.431 5.514 5.914 14.505 4.422 26.964l-.815 6.832c-1.76 14.739-8.09 23.548-18.98 26.426 6.269 1.682 10.362 5.575 12.269 11.687 1.908 6.113 2.263 14.202 1.058 24.268-1.96 16.421-5.905 28.854-11.827 37.298-5.922 8.453-15.295 12.676-28.119 12.676h-41.888l18.443-154.422zm31.474 115.771l2.298-19.239c.555-4.673.286-8.211-.798-10.603-1.092-2.393-3.381-3.599-6.85-3.599h-5.757l-5.341 44.764 3.035.182c8.029 0 12.503-3.832 13.413-11.505zm-1.916-57.708c2.636 0 4.552-.988 5.749-2.965 1.196-1.977 2.003-4.76 2.436-8.358l1.847-15.459c.598-5.037-1.318-7.551-5.749-7.551h-6.468l-4.101 34.333h6.286zM422.131 504.57c-5.402-6.953-7.18-18.155-5.333-33.614l1.804-15.103h30.382l-2.298 19.239c-.919 7.673 1.084 11.505 6 11.505 2.757 0 4.769-.806 6.043-2.428 1.275-1.621 2.133-4.343 2.593-8.175.598-5.038.494-9.199-.304-12.494-.806-3.295-2.003-6.052-3.598-8.271-1.595-2.22-4.509-5.662-8.74-10.335l-11.714-13.3c-9.104-10.066-12.928-21.215-11.471-33.44 1.578-13.178 5.8-23.218 12.676-30.111 6.876-6.893 16.128-10.335 27.755-10.335 13.899 0 23.471 3.685 28.7 11.055 5.228 7.369 6.91 18.909 5.038 34.602h-31.466l1.084-10.604c.242-2.037-.131-3.659-1.128-4.855-.997-1.196-2.514-1.795-4.552-1.795-2.402 0-4.274.659-5.627 1.977-1.361 1.318-2.168 3.121-2.445 5.393-.598 5.037 1.656 10.248 6.763 15.641l15.919 17.262c3.711 4.075 6.72 7.941 9.044 11.591 2.315 3.659 4.023 7.968 5.107 12.945 1.084 4.976 1.222 10.872.399 17.704-1.821 15.225-5.983 26.756-12.495 34.602-6.511 7.855-16.179 11.774-29.003 11.774-14.012 0-23.732-3.477-29.133-10.43z"/>
</svg>
