<svg width="30" height="32" viewBox="0 0 30 32" fill="none" xmlns="http://www.w3.org/2000/svg">
<path d="M15 0C14.2288 0 13.4624 0.259616 12.8021 0.730769L10.7584 2.15385L8.40617 2.46154H8.36761L8.32905 2.5C6.75771 2.85096 5.51896 4.08654 5.1671 5.65385L5.12853 5.69231V5.73077L4.82005 8.11539L3.39332 9.96154L3.35476 10V10.0385C2.49197 11.4135 2.45341 13.1875 3.39332 14.5L4.85861 16.5385L5.24422 18.6538L1.27249 24.6923L0 26.5769H5.89974L7.32648 29.8846L8.21337 32L9.48586 30.0769L13.3805 24.2308C14.4264 24.6587 15.6073 24.6971 16.6195 24.2308L20.5141 30.0769L21.7866 32L22.6735 29.8846L24.1003 26.5769H30L28.7275 24.6923L24.8715 18.8462L25.1799 16.5385L26.6067 14.5L26.6452 14.4615V14.4231C27.508 13.0481 27.5466 11.3125 26.6067 10L25.1799 7.96154L24.7172 5.65385H24.7558C24.751 5.625 24.722 5.60577 24.7172 5.57692C24.4955 3.96635 23.2182 2.65865 21.5938 2.46154H21.5553L19.2416 2.15385L17.1979 0.730769C16.5376 0.259616 15.7712 0 15 0ZM15 2.5C15.2844 2.5 15.5639 2.58654 15.7712 2.73077L17.9692 4.30769L18.2391 4.5L18.5476 4.53846L21.2468 4.92308H21.2853C21.8397 4.98558 22.2253 5.37019 22.2879 5.92308V6L22.7892 8.73077L22.8278 9L23.0206 9.23077L24.6015 11.4231C24.8956 11.8317 24.9341 12.524 24.563 13.1154L22.8278 15.5385L22.7892 15.8462L22.4036 18.5385V18.5769C22.3795 18.7788 22.312 18.9663 22.2108 19.1154L22.1337 19.1538V19.1923C21.9553 19.4038 21.7095 19.5433 21.401 19.5769H21.3239L18.509 20.0769L18.2005 20.1154L17.9692 20.3077L15.7712 21.8846C15.3615 22.1779 14.6289 22.2163 14.036 21.8462L12.0308 20.3077L11.7995 20.1154L11.4524 20.0769L8.75321 19.6923H8.71465C8.33387 19.649 8.03985 19.4519 7.86632 19.1538C7.7892 19.0192 7.73136 18.8606 7.71208 18.6923V18.6154L7.2108 15.8077L7.17224 15.5L6.97943 15.2692L5.39846 13.0769C5.10443 12.6683 5.06587 11.9375 5.43702 11.3462L6.97943 9.34615L7.17224 9.11539L7.2108 8.76923L7.55784 6.19231C7.56266 6.17308 7.59158 6.17308 7.5964 6.15385C7.75064 5.55289 8.22783 5.07692 8.83033 4.92308C8.84962 4.91827 8.84962 4.88942 8.86889 4.88462L11.4524 4.53846L11.7609 4.5L12.0308 4.30769L14.2288 2.73077C14.4361 2.58654 14.7156 2.5 15 2.5ZM23.5219 21.2308L25.4113 24.1154H22.4422L22.1337 24.8846L21.2853 26.8462L18.6632 22.8462L19.2416 22.4231L21.671 22V22.0385C21.6999 22.0337 21.7192 22.0048 21.7481 22C22.4132 21.9087 23.0157 21.6298 23.5219 21.2308ZM6.47815 21.2692C7.00353 21.7404 7.67352 22.0673 8.40617 22.1538C8.42063 22.1538 8.43027 22.1538 8.44473 22.1538L10.7969 22.4615L11.3368 22.8846L8.71465 26.8462L7.86632 24.8846L7.55784 24.1154H4.58869L6.47815 21.2692Z" fill="#F6EFE1"/>
</svg>
