<svg width="22" height="22" viewBox="0 0 22 22" fill="none" xmlns="http://www.w3.org/2000/svg">
<path d="M11 0C4.93138 0 0 4.93138 0 11C0 17.0686 4.93138 22 11 22C17.0686 22 22 17.0686 22 11C22 4.93138 17.0686 0 11 0ZM11 1.83444C13.3905 1.83444 15.5541 2.74732 17.1825 4.23573C17.1476 4.23502 17.1123 4.22581 17.0685 4.22581C16.1699 4.22581 15.5844 5.01336 15.5844 5.85697C15.5844 6.61766 15.9676 7.25133 16.4355 8.01202C16.7833 8.61702 17.1875 9.40522 17.1875 10.5323C17.1875 11.3209 16.8937 12.2278 16.4901 13.5021L15.5844 16.5545L12.1436 5.95448C12.6936 5.92655 13.1881 5.87185 13.1881 5.87185C13.6831 5.81684 13.6286 5.08371 13.1336 5.11163C13.1336 5.11163 11.6489 5.23062 10.686 5.23062C9.78823 5.23062 8.27479 5.11163 8.27479 5.11163C7.77979 5.08371 7.72525 5.84477 8.22025 5.87185C8.22025 5.87185 8.68709 5.92655 9.18209 5.95448L10.7257 10.6149L8.72596 16.6289L5.25871 5.95613C5.81802 5.92821 6.3131 5.8735 6.3131 5.8735C6.8081 5.8185 6.74426 5.08536 6.25856 5.11328C6.25856 5.11328 4.83551 5.22619 3.87215 5.23062C5.54987 3.15763 8.11303 1.83444 11 1.83444ZM19.0484 6.60066C19.7605 7.90538 20.1656 9.40305 20.1656 11C20.1656 14.6295 18.0728 17.7432 15.0275 19.2302C15.2251 19.1327 15.4214 19.0351 15.6109 18.9195L18.4072 10.8265C18.9292 9.52509 19.1029 8.47932 19.1029 7.54432C19.1029 7.20501 19.0856 6.90169 19.05 6.60892C19.0487 6.60643 19.0495 6.60321 19.0484 6.60066ZM2.71034 7.0948L6.99399 19.2417C3.93684 17.7591 1.83444 14.6382 1.83444 11C1.83444 9.59947 2.15355 8.27967 2.71034 7.0948ZM11.1553 11.7982L13.9797 19.5243C13.9978 19.5688 14.0159 19.6062 14.0425 19.6417C13.0899 19.9752 12.0693 20.1656 11 20.1656C10.0972 20.1656 9.22809 20.0313 8.40535 19.7904L11.1553 11.7982ZM7.10472 19.2946C7.34285 19.4036 7.58344 19.5023 7.82692 19.5954C7.58083 19.505 7.34026 19.405 7.10472 19.2946ZM14.7366 19.3706C14.5433 19.4567 14.3452 19.5325 14.145 19.6053C14.3459 19.5353 14.5431 19.4561 14.7366 19.3706ZM8.08969 19.6913C8.18762 19.7236 8.285 19.7559 8.38552 19.7855C8.28584 19.756 8.18791 19.7239 8.08969 19.6913Z" fill="#F6EFE1"/>
</svg>
